<svg width="129" height="44" viewBox="0 0 129 44" fill="none" xmlns="http://www.w3.org/2000/svg">
<path fill-rule="evenodd" clip-rule="evenodd" d="M127.856 24.3201C128.898 25.8848 128.86 28.125 127.085 30.1076C125.777 31.5691 123.788 32.5415 121.344 33.0905C118.897 33.6402 115.962 33.7732 112.716 33.5292C106.223 33.0412 98.4318 31.0404 90.7039 27.7662C90.6629 27.7488 90.5713 27.7057 90.4361 27.6421C89.7794 27.3332 88.0927 26.5397 86.1601 25.8502C84.9995 25.4362 83.7714 25.0681 82.6559 24.8741C81.5254 24.6773 80.5751 24.6715 79.931 24.9186C79.7196 24.9998 79.4819 24.8953 79.4003 24.6854C79.3186 24.4754 79.4237 24.2394 79.6352 24.1583C80.496 23.828 81.6322 23.8684 82.7976 24.0711C83.978 24.2765 85.2552 24.6613 86.4376 25.0831C88.4437 25.7987 90.2378 26.6456 90.8308 26.9255C90.934 26.9742 91.0008 27.0058 91.0261 27.0165C98.6897 30.2634 106.393 32.2364 112.778 32.7164C115.97 32.9564 118.819 32.822 121.163 32.2955C123.51 31.7683 125.317 30.8556 126.472 29.566C128.026 27.8303 127.987 25.9947 127.171 24.7698C126.349 23.535 124.689 22.8432 122.81 23.4966C121.802 23.8468 121.16 24.3233 120.764 24.8236C120.369 25.323 120.201 25.8683 120.176 26.3874C120.151 26.9108 120.272 27.4063 120.454 27.7889C120.646 28.1935 120.867 28.3947 120.98 28.4394C121.19 28.523 121.292 28.7602 121.208 28.9692C121.124 29.1782 120.885 29.2798 120.675 29.1962C120.274 29.0372 119.936 28.6085 119.712 28.1368C119.477 27.6431 119.324 27.0155 119.356 26.3488C119.388 25.6777 119.608 24.9655 120.119 24.3198C120.629 23.6749 121.413 23.1184 122.539 22.7273C124.763 21.954 126.82 22.7654 127.856 24.3201Z" fill="#D4B783"/>
<path fill-rule="evenodd" clip-rule="evenodd" d="M0.693108 20.8699C-0.349188 22.4346 -0.310928 24.6748 1.4638 26.6574C2.77206 28.1189 4.76106 29.0913 7.20491 29.6403C9.65185 30.19 12.5875 30.323 15.8335 30.079C22.326 29.591 30.1173 27.5902 37.8452 24.316C37.8862 24.2986 37.9777 24.2555 38.113 24.1919C38.7697 23.883 40.4564 23.0895 42.389 22.4C43.5495 21.986 44.7777 21.618 45.8932 21.4239C47.0237 21.2272 47.9739 21.2213 48.618 21.4685C48.8295 21.5496 49.0671 21.4451 49.1488 21.2352C49.2305 21.0252 49.1253 20.7892 48.9139 20.7081C48.053 20.3778 46.9169 20.4182 45.7515 20.621C44.5711 20.8263 43.2938 21.2111 42.1115 21.6329C40.1054 22.3485 38.3113 23.1954 37.7183 23.4753C37.6151 23.524 37.5482 23.5556 37.523 23.5663C29.8594 26.8132 22.1565 28.7862 15.7715 29.2662C12.5787 29.5062 9.72971 29.3718 7.38604 28.8453C5.03928 28.3181 3.23171 27.4054 2.07733 26.1158C0.523567 24.3801 0.561827 22.5445 1.37775 21.3196C2.20035 20.0848 3.85962 19.393 5.73936 20.0464C6.74681 20.3966 7.38872 20.8731 7.78477 21.3734C8.18015 21.8728 8.34813 22.4181 8.3729 22.9372C8.39788 23.4606 8.27674 23.9561 8.09491 24.3387C7.90267 24.7433 7.68204 24.9445 7.56951 24.9892C7.35905 25.0728 7.25668 25.31 7.34086 25.519C7.42505 25.728 7.66391 25.8296 7.87438 25.746C8.2749 25.587 8.61314 25.1583 8.8373 24.6866C9.07188 24.1929 9.22468 23.5653 9.19286 22.8986C9.16084 22.2275 8.94129 21.5153 8.43012 20.8696C7.91963 20.2248 7.13597 19.6682 6.01057 19.2771C3.78591 18.5038 1.72874 19.3153 0.693108 20.8699Z" fill="#D4B783"/>
<path fill-rule="evenodd" clip-rule="evenodd" d="M61.3318 24.3679C60.0237 23.6423 57.3342 23.3228 53.069 24.3874C51.3979 24.8046 49.7429 25.8398 48.3464 26.9778C46.9519 28.114 45.8309 29.3396 45.2282 30.1168C45.1592 30.2059 45.0309 30.2222 44.9418 30.1532C44.8526 30.0843 44.8363 29.9562 44.9053 29.8672C45.5261 29.0666 46.6686 27.8185 48.0881 26.6618C49.5057 25.5068 51.2153 24.4298 52.97 23.9919C57.2692 22.9188 60.0855 23.2101 61.5302 24.0114C62.2227 24.3955 63.4887 25.1617 64.653 25.8668L64.6941 25.8916C65.8504 26.592 66.8884 27.2206 67.181 27.3666C67.2819 27.417 67.3228 27.5394 67.2723 27.6402C67.2219 27.7409 67.0992 27.7817 66.9983 27.7313C66.6905 27.5777 65.6541 26.95 64.5277 26.2678L64.4412 26.2154C63.2732 25.5081 62.0157 24.7472 61.3318 24.3679Z" fill="#D4B783"/>
<path fill-rule="evenodd" clip-rule="evenodd" d="M51.9679 27.8296C49.9514 28.8376 48.0512 30.1321 46.9202 31.0151C46.8285 31.0867 46.6984 31.0673 46.6297 30.9719C46.5609 30.8764 46.5795 30.741 46.6712 30.6695C47.8197 29.7728 49.743 28.4625 51.7882 27.4401C52.811 26.9288 53.8688 26.4873 54.8785 26.2062C55.8861 25.9257 56.8591 25.8012 57.7069 25.937C60.7422 26.423 64.4169 27.6071 65.9835 28.112C66.0949 28.1479 66.1956 28.1803 66.2847 28.2088C66.3943 28.2439 66.4557 28.3648 66.422 28.4788C66.3883 28.5929 66.2722 28.6569 66.1627 28.6218C66.0736 28.5932 65.9731 28.5609 65.8624 28.5252C64.2929 28.0196 60.6465 26.8448 57.6438 26.364C56.8752 26.2409 55.965 26.351 54.9857 26.6236C54.0086 26.8956 52.9759 27.3257 51.9679 27.8296Z" fill="#D4B783"/>
<path fill-rule="evenodd" clip-rule="evenodd" d="M58.534 28.9219C57.2135 28.8355 55.8662 28.8252 54.937 28.9957C54.0163 29.1646 52.9207 29.6741 51.9144 30.2543C50.912 30.8323 50.0167 31.4697 49.5011 31.8782C49.4155 31.946 49.29 31.9331 49.2207 31.8493C49.1514 31.7656 49.1646 31.6427 49.2502 31.5749C49.7798 31.1553 50.6912 30.5067 51.712 29.9181C52.7289 29.3317 53.873 28.7939 54.8635 28.6121C55.8456 28.4319 57.2357 28.4459 58.5606 28.5325C59.8901 28.6194 61.1729 28.7809 61.9498 28.9035C62.0585 28.9207 62.1324 29.0208 62.1149 29.1272C62.0973 29.2336 61.995 29.3059 61.8863 29.2888C61.1202 29.1679 59.8498 29.0079 58.534 28.9219Z" fill="#D4B783"/>
<path fill-rule="evenodd" clip-rule="evenodd" d="M53.4968 31.8437C52.876 32.1287 52.3923 32.4864 52.1413 32.7237C52.066 32.7949 51.9317 32.8045 51.8413 32.7452C51.7509 32.6858 51.7387 32.58 51.814 32.5088C52.0948 32.2433 52.6162 31.8595 53.2823 31.5537C53.9484 31.2479 54.7763 31.0125 55.6633 31.0663C57.3092 31.166 58.7749 31.1076 59.2951 31.0666C59.4122 31.0574 59.5166 31.1247 59.5283 31.2169C59.54 31.3091 59.4546 31.3914 59.3375 31.4006C58.7941 31.4434 57.3032 31.5023 55.6307 31.4009C54.8586 31.3542 54.1177 31.5587 53.4968 31.8437Z" fill="#D4B783"/>
<path fill-rule="evenodd" clip-rule="evenodd" d="M56.6201 22.0943C54.7497 22.2844 52.6506 22.7027 50.8216 23.31C47.9257 24.2715 45.8888 26.5212 45.24 27.5155C45.1782 27.6102 45.051 27.637 44.956 27.5755C44.8609 27.5139 44.8339 27.3873 44.8957 27.2926C45.5794 26.2449 47.6836 23.9208 50.6918 22.922C52.5528 22.3041 54.6819 21.8802 56.5784 21.6874C58.465 21.4957 60.1559 21.5289 61.123 21.85C61.8847 22.1029 62.7725 22.5855 63.5668 23.089C64.3627 23.5934 65.0788 24.1279 65.4983 24.4935C65.5836 24.5679 65.5923 24.6971 65.5176 24.782C65.443 24.867 65.3133 24.8756 65.228 24.8013C64.8275 24.4523 64.129 23.93 63.3464 23.434C62.5622 22.9369 61.7075 22.4752 60.9932 22.238C60.1153 21.9465 58.5005 21.9032 56.6201 22.0943Z" fill="#D4B783"/>
<path fill-rule="evenodd" clip-rule="evenodd" d="M58.413 31.1639C58.4647 31.2666 58.4368 31.3999 58.3506 31.4615C58.3323 31.4746 58.275 31.5352 58.192 31.6968C58.1126 31.8515 58.0189 32.0804 57.9202 32.4018C57.7228 33.0445 57.5094 34.0431 57.347 35.5268C57.189 36.9705 57.496 38.6372 57.9641 40.1378C58.4314 41.6358 59.0507 42.9412 59.4936 43.6538C59.5535 43.75 59.5365 43.8859 59.4557 43.9572C59.375 44.0284 59.261 44.0082 59.2011 43.912C58.7354 43.1627 58.1007 41.8204 57.623 40.289C57.1461 38.7602 56.817 37.0158 56.9861 35.4707C57.1508 33.9657 57.3691 32.9339 57.5784 32.2527C57.6829 31.9122 57.7863 31.6558 57.8815 31.4704C57.9732 31.292 58.068 31.1577 58.1633 31.0895C58.2495 31.0279 58.3613 31.0612 58.413 31.1639Z" fill="#D4B783"/>
<path fill-rule="evenodd" clip-rule="evenodd" d="M63.7685 28.522C63.8586 28.5981 63.8684 28.7308 63.7903 28.8185C62.7615 29.9735 61.9642 31.483 61.424 32.9236C60.883 34.3667 60.6082 35.7181 60.6082 36.5502C60.6082 37.9501 60.1749 41.9829 59.9598 43.8138C59.9463 43.9291 59.8393 44.0119 59.7208 43.9987C59.6023 43.9856 59.5172 43.8814 59.5307 43.7661C59.747 41.9246 60.1763 37.9203 60.1763 36.5502C60.1763 35.651 60.4676 34.2482 61.0183 32.7796C61.5699 31.3085 62.39 29.749 63.4639 28.5432C63.542 28.4555 63.6784 28.446 63.7685 28.522Z" fill="#D4B783"/>
<path fill-rule="evenodd" clip-rule="evenodd" d="M63.7099 30.2074C63.8119 30.245 63.867 30.3668 63.833 30.4795C63.6938 30.9411 63.5501 31.8473 63.4037 32.9797C63.2825 33.9174 63.1613 34.9948 63.0398 36.0746C63.0154 36.2907 62.9911 36.5069 62.9668 36.7221C62.8472 37.7792 62.4395 39.2355 61.9943 40.5839C61.5477 41.9364 61.0569 43.1997 60.7623 43.8781C60.7158 43.9852 60.5995 44.0304 60.5026 43.979C60.4056 43.9276 60.3648 43.799 60.4113 43.6919C60.6998 43.0276 61.1858 41.7774 61.6286 40.4364C62.0727 39.0912 62.4668 37.6741 62.5805 36.6688C62.6047 36.4543 62.629 36.2386 62.6533 36.0228C62.7748 34.943 62.8965 33.8608 63.0183 32.9188C63.1635 31.7954 63.3113 30.8487 63.4637 30.3435C63.4977 30.2307 63.6079 30.1698 63.7099 30.2074Z" fill="#D4B783"/>
<path fill-rule="evenodd" clip-rule="evenodd" d="M66.6694 21.5693C66.801 21.5693 66.9076 21.652 66.9076 21.754C66.9076 21.9302 66.9425 22.6243 67.0852 23.9513C67.2253 25.2541 67.8472 26.766 68.1407 27.3576C68.1879 27.4528 68.1267 27.5596 68.0039 27.5962C67.8811 27.6328 67.7432 27.5853 67.696 27.4901C67.3948 26.8832 66.7558 25.3343 66.6104 23.9819C66.4676 22.6537 66.4312 21.9466 66.4312 21.754C66.4312 21.652 66.5378 21.5693 66.6694 21.5693Z" fill="#D4B783"/>
<path fill-rule="evenodd" clip-rule="evenodd" d="M67.6393 22.4307C67.8301 22.4307 67.9847 22.5254 67.9847 22.6422C67.9847 23.7593 68.6669 26.2421 69.0133 27.356C69.049 27.4707 68.926 27.5815 68.7386 27.6034C68.5512 27.6252 68.3704 27.5499 68.3347 27.4351C67.9913 26.3307 67.2939 23.8068 67.2939 22.6422C67.2939 22.5254 67.4486 22.4307 67.6393 22.4307Z" fill="#D4B783"/>
<path fill-rule="evenodd" clip-rule="evenodd" d="M64.8119 21.6049C64.9214 21.5401 65.0693 21.5663 65.1423 21.6636C65.3059 21.8815 65.4523 22.2203 65.5831 22.6051C65.7158 22.9955 65.839 23.4537 65.949 23.9244C66.1692 24.866 66.3396 25.87 66.4294 26.508C66.4458 26.6239 66.3531 26.7297 66.2226 26.7442C66.092 26.7586 65.973 26.6764 65.9566 26.5605C65.868 25.9309 65.6995 24.9385 65.4825 24.0104C65.374 23.5463 65.2541 23.1014 65.1269 22.7273C64.9979 22.3476 64.8677 22.0606 64.7458 21.8983C64.6729 21.801 64.7024 21.6697 64.8119 21.6049Z" fill="#D4B783"/>
<path fill-rule="evenodd" clip-rule="evenodd" d="M61.2011 29.3949C61.273 29.4774 61.273 29.6112 61.2011 29.6938C60.7178 30.2485 59.6158 31.9748 59.1828 34.3359C58.9684 35.5045 59.0113 37.3094 59.1583 39.1116C59.3048 40.9066 59.552 42.6722 59.7348 43.7478C59.7543 43.8624 59.6892 43.9734 59.5894 43.9957C59.4896 44.0181 59.3929 43.9433 59.3735 43.8288C59.1886 42.7415 58.9395 40.9619 58.7917 39.151C58.6446 37.3474 58.5956 35.4858 58.8225 34.2488C59.2719 31.7986 60.4128 30.0008 60.9407 29.3949C61.0126 29.3124 61.1292 29.3124 61.2011 29.3949Z" fill="#D4B783"/>
<path fill-rule="evenodd" clip-rule="evenodd" d="M65.3939 32.7858C65.5032 32.7998 65.5807 32.9019 65.567 33.0138C65.516 33.4318 65.2953 34.7757 64.8167 36.86C64.5681 37.9428 63.8255 39.2074 63.0178 40.3344C62.2061 41.4669 61.311 42.4844 60.7324 43.0773C60.6546 43.1571 60.5283 43.1571 60.4505 43.0773C60.3726 42.9975 60.3726 42.8682 60.4505 42.7884C61.0166 42.2083 61.8982 41.2064 62.6965 40.0925C63.4988 38.973 64.1995 37.7643 64.4286 36.7664C64.9055 34.6894 65.1228 33.3611 65.1714 32.9631C65.185 32.8512 65.2847 32.7718 65.3939 32.7858Z" fill="#D4B783"/>
<path fill-rule="evenodd" clip-rule="evenodd" d="M86.2576 13.9378C86.3025 14.0505 86.2546 14.1812 86.1507 14.2299C85.0275 14.7554 83.1652 15.669 81.385 16.6169C79.5978 17.5686 77.9153 18.5436 77.1361 19.1931C75.5405 20.5231 74.7408 21.2923 74.546 21.5034C74.4659 21.5901 74.3361 21.5901 74.2561 21.5034C74.176 21.4166 74.176 21.2759 74.2561 21.1892C74.4707 20.9566 75.2882 20.173 76.8861 18.841C77.7035 18.1596 79.4244 17.1659 81.2042 16.2181C82.9911 15.2666 84.8595 14.3501 85.9882 13.822C86.0921 13.7733 86.2127 13.8252 86.2576 13.9378Z" fill="#D4B783"/>
<path fill-rule="evenodd" clip-rule="evenodd" d="M86.2684 13.1045C86.2955 13.2191 86.2275 13.3348 86.1165 13.3628C85.9424 13.4068 85.7658 13.4505 85.5865 13.4948C83.375 14.0415 80.7527 14.6897 77.2028 17.3308C75.1919 18.8269 73.2907 21.4249 72.3712 22.6814C72.2062 22.9069 72.0728 23.0892 71.9761 23.2141C71.9047 23.3063 71.7745 23.3212 71.6853 23.2475C71.5961 23.1738 71.5816 23.0392 71.653 22.9471C71.7427 22.8312 71.8692 22.6581 72.0276 22.4413C72.9354 21.1992 74.8902 18.5246 76.961 16.9839C80.5776 14.2932 83.2653 13.6289 85.4888 13.0794C85.6682 13.035 85.8447 12.9914 86.0183 12.9476C86.1293 12.9195 86.2412 12.9898 86.2684 13.1045Z" fill="#D4B783"/>
<path fill-rule="evenodd" clip-rule="evenodd" d="M86.2258 15.5998C86.2974 15.6855 86.2891 15.8158 86.2073 15.8909C85.0276 16.9726 82.3752 19.4129 81.197 20.5242C80.0098 21.644 79.1106 22.2439 78.7947 22.4094C78.6974 22.4604 78.5792 22.4191 78.5306 22.3172C78.482 22.2153 78.5214 22.0913 78.6186 22.0404C78.8923 21.8969 79.7622 21.3225 80.9337 20.2175C82.1143 19.1039 84.7689 16.6617 85.948 15.5803C86.0298 15.5053 86.1542 15.514 86.2258 15.5998Z" fill="#D4B783"/>
<path fill-rule="evenodd" clip-rule="evenodd" d="M44.1232 12.9569C44.2237 12.9126 44.3377 12.9665 44.3779 13.0772C44.6617 13.8593 45.2355 14.8897 45.9748 15.8039C46.7159 16.7203 47.6042 17.4965 48.5092 17.8034C49.1773 18.03 49.986 18.2971 50.7741 18.5574C51.7792 18.8892 52.7506 19.21 53.3536 19.4215C53.4567 19.4577 53.5137 19.5792 53.4809 19.6928C53.4481 19.8065 53.3379 19.8693 53.2348 19.8331C52.6328 19.622 51.6692 19.3038 50.6687 18.9735C49.8805 18.7132 49.0693 18.4453 48.394 18.2163C47.3913 17.8762 46.4453 17.0349 45.6823 16.0913C44.9174 15.1454 44.3172 14.073 44.0141 13.2376C43.9739 13.1269 44.0227 13.0012 44.1232 12.9569Z" fill="#D4B783"/>
<path fill-rule="evenodd" clip-rule="evenodd" d="M44.0702 11.2636C44.1565 11.1942 44.2887 11.2012 44.3654 11.2794C45.5736 12.5102 47.0862 12.9953 48.8117 13.3113C49.3756 13.4145 49.9543 13.4986 50.5515 13.5853C50.8734 13.632 51.2007 13.6795 51.534 13.7312C52.4798 13.8781 53.4599 14.0571 54.4523 14.3446C57.6314 15.2658 59.6472 17.031 60.3453 17.809C60.4182 17.8902 60.4045 18.0094 60.3149 18.0754C60.2253 18.1413 60.0936 18.129 60.0208 18.0478C59.3616 17.3133 57.41 15.5993 54.3248 14.7053C53.3597 14.4257 52.4017 14.2502 51.4634 14.1045C51.1402 14.0543 50.8176 14.0075 50.4977 13.961C49.8943 13.8734 49.3003 13.7871 48.7288 13.6825C46.9699 13.3603 45.3503 12.8527 44.0528 11.531C43.9761 11.4528 43.9839 11.3331 44.0702 11.2636Z" fill="#D4B783"/>
<path fill-rule="evenodd" clip-rule="evenodd" d="M44.1747 11.2188C44.2885 11.199 44.3962 11.2795 44.4152 11.3986C44.5605 12.3107 45.147 13.1699 45.9715 13.9324C46.7933 14.6923 47.831 15.3369 48.8362 15.8224C50.0808 16.4234 53.0268 17.7354 55.1598 18.6853C55.811 18.9753 56.3864 19.2315 56.8144 19.4235C56.9205 19.4711 56.9697 19.5996 56.9242 19.7107C56.8788 19.8217 56.7559 19.8731 56.6498 19.8255C56.2247 19.6349 55.6522 19.3799 55.0033 19.091C52.87 18.141 49.912 16.8237 48.6611 16.2195C47.6313 15.7222 46.5558 15.0564 45.6947 14.2602C44.8365 13.4666 44.1707 12.524 44.0029 11.4705C43.9839 11.3514 44.0608 11.2387 44.1747 11.2188Z" fill="#D4B783"/>
<path fill-rule="evenodd" clip-rule="evenodd" d="M81.9563 11.3791C81.9795 11.49 81.9083 11.5988 81.7972 11.6221C79.1736 12.1707 77.1177 13.0716 75.6252 13.9721C74.128 14.8754 73.2081 15.7717 72.8457 16.3026C72.7818 16.3963 72.654 16.4205 72.5602 16.3566C72.4664 16.2927 72.4423 16.165 72.5062 16.0714C72.9133 15.4749 73.8861 14.5417 75.4128 13.6207C76.944 12.6968 79.0431 11.7785 81.7131 11.2202C81.8241 11.197 81.933 11.2681 81.9563 11.3791Z" fill="#D4B783"/>
<path fill-rule="evenodd" clip-rule="evenodd" d="M83.6726 11.356C83.714 11.4671 83.6569 11.5906 83.5451 11.6318C80.0735 12.9095 77.3976 14.5456 75.4845 16.0592C73.5666 17.5764 72.4265 18.9615 72.0143 19.7296C71.9581 19.8342 71.8273 19.8738 71.7221 19.818C71.6168 19.7622 71.577 19.6322 71.6331 19.5276C72.0836 18.6882 73.2727 17.2602 75.2154 15.7233C77.1629 14.1826 79.8788 12.5234 83.395 11.2292C83.5069 11.1881 83.6312 11.2448 83.6726 11.356Z" fill="#D4B783"/>
<path fill-rule="evenodd" clip-rule="evenodd" d="M44.0062 10.5007C44.0337 10.3959 44.1453 10.3322 44.2554 10.3584C44.3504 10.381 44.4554 10.4212 44.5643 10.4665C44.6222 10.4907 44.6887 10.5194 44.7591 10.5499C44.8178 10.5753 44.8793 10.602 44.9411 10.6281C45.2225 10.7474 45.573 10.8851 46.0115 11.0005C46.8863 11.2308 48.1255 11.376 49.8661 11.088C51.3254 10.8465 52.9884 11.0863 54.4219 11.4467C55.8591 11.8079 57.0874 12.2959 57.687 12.5687C57.7894 12.6153 57.8327 12.7321 57.7838 12.8295C57.7348 12.927 57.6121 12.9682 57.5096 12.9216C56.9291 12.6574 55.7251 12.1788 54.317 11.8248C52.9052 11.47 51.3098 11.2461 49.9366 11.4733C48.1366 11.7712 46.8358 11.6233 45.9019 11.3775C45.4359 11.2549 45.0648 11.1088 44.7738 10.9854C44.7035 10.9557 44.6412 10.9286 44.5836 10.9036C44.5177 10.8751 44.458 10.8492 44.3995 10.8249C44.2926 10.7804 44.2147 10.7519 44.1557 10.7379C44.0456 10.7117 43.9787 10.6055 44.0062 10.5007Z" fill="#D4B783"/>
<path fill-rule="evenodd" clip-rule="evenodd" d="M44.1602 11.2205C44.2704 11.1971 44.3796 11.2637 44.4041 11.3693C44.4954 11.7628 44.9754 12.7711 46.1475 13.445C47.647 14.3071 49.6061 14.8885 54.2054 15.9169C57.9437 16.7527 60.4344 19.2463 61.2217 20.403C61.2834 20.4937 61.2567 20.6151 61.1621 20.6742C61.0675 20.7333 60.9408 20.7077 60.8791 20.6171C60.135 19.5237 57.725 17.1062 54.1124 16.2985C49.5231 15.2724 47.5004 14.6798 45.9371 13.781C44.6588 13.0461 44.1179 11.9413 44.0049 11.4543C43.9804 11.3487 44.0499 11.244 44.1602 11.2205Z" fill="#D4B783"/>
<path fill-rule="evenodd" clip-rule="evenodd" d="M84.3146 12.4397C83.4191 11.9679 81.923 11.5542 79.4039 11.6292C75.3824 11.7491 73.3374 13.376 72.8346 14.117C72.7721 14.2091 72.6479 14.2324 72.557 14.1691C72.4662 14.1058 72.4431 13.9799 72.5056 13.8878C73.0992 13.013 75.2804 11.3474 79.3922 11.2248C81.9565 11.1484 83.5254 11.5679 84.4988 12.0808C85.4309 12.5719 85.8015 13.1414 85.9689 13.3987C85.9775 13.4119 85.9856 13.4242 85.9931 13.4357C86.1721 13.7077 86.2499 14.0918 86.2693 14.4652C86.289 14.8442 86.25 15.243 86.1702 15.5664C86.1267 15.7428 85.9735 16.0663 85.7681 16.447C85.5578 16.8369 85.2794 17.3104 84.9685 17.798C84.3506 18.767 83.5891 19.8154 82.9683 20.3658C82.3616 20.9037 81.5013 21.6537 80.7629 22.2975C80.3367 22.6691 79.9511 23.0053 79.6783 23.2448C79.595 23.318 79.4689 23.3089 79.3967 23.2244C79.3245 23.14 79.3335 23.0123 79.4168 22.9391C79.6919 22.6976 80.0788 22.3603 80.5058 21.988C81.2429 21.3453 82.0995 20.5986 82.7054 20.0614C83.2806 19.5514 84.0165 18.5455 84.6331 17.5785C84.9395 17.098 85.2128 16.633 85.4178 16.253C85.6278 15.8637 85.7539 15.5857 85.7829 15.4682C85.8526 15.1856 85.8883 14.827 85.8706 14.4864C85.8527 14.1403 85.781 13.8427 85.6609 13.6601C85.6533 13.6485 85.6451 13.636 85.6364 13.6226C85.482 13.3848 85.1562 12.8832 84.3146 12.4397Z" fill="#D4B783"/>
<path fill-rule="evenodd" clip-rule="evenodd" d="M56.3616 32.8079C56.4672 32.8602 56.5071 32.9821 56.4508 33.0802C56.0342 33.806 55.3182 35.775 55.8216 37.7629C56.1373 39.0093 56.9313 40.342 57.6793 41.4314C58.0204 41.9282 58.3489 42.3702 58.6144 42.7275C58.6389 42.7605 58.6629 42.7928 58.6864 42.8243C58.8242 43.0099 58.9434 43.1715 59.0333 43.3012C59.1078 43.4087 59.1744 43.511 59.2101 43.5919C59.2117 43.5921 59.2134 43.5924 59.2152 43.5927C59.2628 43.6006 59.3457 43.5995 59.4693 43.5808C59.7122 43.5439 60.0414 43.4504 60.404 43.3287C60.8988 43.1627 61.4231 42.9561 61.8404 42.7917C62.0366 42.7143 62.2092 42.6463 62.3439 42.5963C63.0932 42.3178 64.036 41.6066 65.6549 39.5008C66.9408 37.828 67.5758 36.3736 67.7299 35.8006C67.759 35.6928 67.8766 35.6272 67.9926 35.6542C68.1087 35.6811 68.1792 35.7904 68.1502 35.8982C67.98 36.5311 67.3171 38.0311 66.0074 39.7347C64.3817 41.8494 63.3777 42.6456 62.5048 42.97C62.3837 43.015 62.2202 43.0794 62.0303 43.1542C61.6083 43.3204 61.0563 43.5378 60.5512 43.7073C60.1838 43.8305 59.8235 43.9348 59.5392 43.978C59.3991 43.9993 59.259 44.0088 59.1393 43.989C59.0191 43.9691 58.8684 43.9083 58.8121 43.7512C58.8019 43.723 58.7599 43.6502 58.6691 43.5192C58.5835 43.3958 58.4682 43.2394 58.3298 43.0529C58.3063 43.0213 58.2823 42.989 58.2576 42.9558C57.9924 42.5989 57.6596 42.1512 57.3141 41.6478C56.5614 40.5516 55.7332 39.1711 55.3999 37.855C54.8651 35.7429 55.62 33.6723 56.0686 32.8908C56.1249 32.7927 56.2561 32.7556 56.3616 32.8079ZM59.1928 43.5875C59.1928 43.5875 59.193 43.5876 59.1935 43.5878Z" fill="#D4B783"/>
<path fill-rule="evenodd" clip-rule="evenodd" d="M74.3116 20.7218C76.2125 20.5555 78.5531 21.7135 79.9534 23.8369C80.6606 24.9091 81.1597 26.6569 81.4824 28.2511C81.806 29.85 81.9606 31.3385 81.9606 31.9164C81.9606 32.4981 81.8048 33.5913 81.5757 34.5734C81.4608 35.0661 81.3253 35.5402 81.1776 35.9148C81.1039 36.1018 81.0249 36.2698 80.9408 36.4047C80.8598 36.5347 80.7598 36.6573 80.6357 36.7224C80.5251 36.7805 80.3781 36.9275 80.1968 37.1504C80.0798 37.2943 79.9605 37.4539 79.837 37.6193C79.7732 37.7047 79.7082 37.7917 79.6418 37.8788C79.4523 38.1275 79.2523 38.3756 79.0562 38.5517C78.8723 38.7168 78.6303 38.8752 78.3732 38.8078C78.3169 38.793 78.1874 38.7764 77.982 38.76C77.7827 38.7441 77.5274 38.7293 77.2304 38.7144C76.9597 38.7008 76.6559 38.6872 76.3303 38.6726L76.2361 38.6684C75.8751 38.6523 75.4896 38.6348 75.0957 38.6149C73.5312 38.5358 71.7995 38.4162 70.9393 38.1699C70.0752 37.9225 69.1446 37.3913 68.3604 36.8491C67.5752 36.3064 66.9193 35.7404 66.6038 35.4093L66.6034 35.4089C66.2998 35.0901 65.5382 34.2906 64.7949 33.4103C64.4232 32.9701 64.054 32.5073 63.7482 32.0725C63.445 31.6414 63.194 31.224 63.07 30.8768C62.8542 30.2728 63.0571 29.7431 63.3647 29.3501C63.6688 28.9616 64.0912 28.6815 64.3888 28.5395C64.4151 28.5269 64.4437 28.5205 64.4726 28.5205H65.9888C66.1655 28.5205 66.2821 28.5017 66.3777 28.4658C66.4723 28.4301 66.5603 28.3724 66.673 28.2723C66.7703 28.1859 66.8772 28.0762 67.0187 27.931C67.0463 27.9027 67.0752 27.8731 67.1056 27.842C67.2893 27.6542 67.5196 27.4225 67.8267 27.1404C68.4113 26.6034 69.1559 25.5513 69.8027 24.5728C70.0488 24.2005 70.278 23.8432 70.4765 23.5336C70.5372 23.4391 70.5949 23.349 70.6495 23.2643C70.7656 23.0839 70.8675 22.9272 70.9502 22.8052C71.0293 22.6885 71.1006 22.5887 71.1526 22.5341C71.1828 22.5024 71.2205 22.4592 71.2661 22.4069C71.6529 21.963 72.6044 20.8711 74.3116 20.7218ZM79.6205 24.0788C78.2916 22.0637 76.0834 20.9933 74.3452 21.1454C72.8068 21.28 71.96 22.2444 71.5661 22.6931C71.5168 22.7492 71.4745 22.7973 71.439 22.8347C71.4152 22.8597 71.3633 22.929 71.2801 23.0517C71.2005 23.1691 71.101 23.322 70.985 23.5023C70.9311 23.5859 70.8738 23.6753 70.8134 23.7694C70.6147 24.0793 70.3833 24.4401 70.1354 24.8151C69.4933 25.7864 68.7217 26.8831 68.0933 27.4603C67.7938 27.7354 67.5693 27.9613 67.3881 28.1465C67.3594 28.1758 67.3317 28.2043 67.3046 28.2321C67.1635 28.3769 67.0439 28.4996 66.9346 28.5967C66.8009 28.7155 66.6709 28.807 66.5144 28.8659C66.3589 28.9244 66.1912 28.9455 65.9888 28.9455H64.5176C64.2623 29.074 63.9194 29.3109 63.6775 29.62C63.4265 29.9407 63.301 30.3129 63.4491 30.7276C63.5525 31.0171 63.7754 31.3956 64.0739 31.82C64.3699 32.2408 64.7304 32.6932 65.0979 33.1284C65.8327 33.9986 66.587 34.7905 66.8901 35.1087C67.1812 35.4142 67.814 35.9625 68.5831 36.4941C69.353 37.0264 70.242 37.5297 71.0458 37.7599C71.8535 37.9911 73.5334 38.1103 75.1152 38.1903C75.5079 38.2102 75.8924 38.2276 76.2534 38.2438L76.3478 38.248C76.6731 38.2625 76.9779 38.2762 77.2498 38.2898C77.5475 38.3048 77.8075 38.3198 78.0127 38.3362C78.2118 38.3521 78.3761 38.3704 78.4714 38.3954C78.5176 38.4075 78.6168 38.3869 78.793 38.2287C78.957 38.0814 79.1361 37.8619 79.3256 37.6133C79.3864 37.5336 79.4484 37.4505 79.5109 37.3669C79.6379 37.197 79.7665 37.0248 79.8889 36.8743C80.0677 36.6546 80.2619 36.4434 80.4546 36.3423C80.4821 36.3278 80.5338 36.2814 80.602 36.1719C80.6671 36.0675 80.735 35.9259 80.8035 35.7522C80.9401 35.4055 81.07 34.9545 81.1824 34.4723C81.4082 33.5045 81.5557 32.4489 81.5557 31.9164C81.5557 31.3801 81.407 29.9239 81.0863 28.3394C80.7646 26.7502 80.2781 25.0758 79.6205 24.0788Z" fill="#D4B783"/>
<path fill-rule="evenodd" clip-rule="evenodd" d="M66.4563 28.5731C66.51 28.477 66.6317 28.4424 66.7282 28.4958C66.9446 28.6154 67.2666 28.7644 67.6696 28.9482C67.7123 28.9676 67.7558 28.9875 67.8001 29.0077C68.1711 29.1767 68.5979 29.3711 69.0537 29.5915C70.0737 30.0848 71.2472 30.7123 72.2909 31.4916C74.702 33.2918 77.362 36.0887 78.4727 37.6467C78.5366 37.7363 78.5154 37.8606 78.4254 37.9242C78.3353 37.9878 78.2105 37.9667 78.1466 37.877C77.0613 36.3547 74.431 33.587 72.051 31.81C71.0372 31.0531 69.89 30.4385 68.879 29.9495C68.4276 29.7312 68.005 29.5387 67.6337 29.3696C67.5895 29.3494 67.5459 29.3296 67.5031 29.3101C67.1046 29.1283 66.7668 28.9725 66.534 28.8437C66.4375 28.7903 66.4027 28.6692 66.4563 28.5731Z" fill="#D4B783"/>
<path fill-rule="evenodd" clip-rule="evenodd" d="M65.045 28.5C65.1419 28.5584 65.1733 28.6846 65.1152 28.7819C65.1163 28.7801 65.1168 28.7792 65.1169 28.7793C65.1181 28.7797 65.1013 28.8314 65.1464 28.979C65.1936 29.1339 65.2985 29.3577 65.4971 29.6592C65.8937 30.2614 66.646 31.1461 67.9874 32.3713C70.656 34.8089 74.8769 36.8497 76.6556 37.5646C76.7605 37.6067 76.8115 37.7263 76.7696 37.8317C76.7276 37.937 76.6086 37.9883 76.5037 37.9461C74.7088 37.2248 70.4346 35.162 67.7122 32.6753C66.3581 31.4384 65.5787 30.5278 65.156 29.886C64.945 29.5656 64.8181 29.3053 64.7553 29.0995C64.6966 28.907 64.6791 28.7135 64.7645 28.5705C64.8226 28.4732 64.9482 28.4416 65.045 28.5Z" fill="#D4B783"/>
<path fill-rule="evenodd" clip-rule="evenodd" d="M68.1732 26.8747C68.2172 26.7662 68.3362 26.716 68.439 26.7625C69.8526 27.4022 73.099 29.0122 74.6984 30.3114C75.5046 30.9662 76.5902 32.1819 77.612 33.4222C78.6372 34.6667 79.6101 35.9509 80.1934 36.7542C80.2614 36.8479 80.2446 36.9821 80.1559 37.0539C80.0672 37.1258 79.9401 37.108 79.8721 37.0143C79.2931 36.2169 78.3255 34.9396 77.3065 33.7028C76.2842 32.4618 75.2221 31.2761 74.4516 30.6503C72.8976 29.3881 69.6958 27.7964 68.2795 27.1554C68.1767 27.1089 68.1291 26.9832 68.1732 26.8747Z" fill="#D4B783"/>
<path fill-rule="evenodd" clip-rule="evenodd" d="M69.0198 26.9317C69.0256 26.8234 69.1237 26.74 69.239 26.7454C70.3043 26.7954 73.0179 27.1922 75.4309 28.3853C76.6587 28.9923 77.9981 30.2432 79.164 31.5386C80.3347 32.8394 81.3501 34.2072 81.9286 35.0717C81.9901 35.1635 81.9606 35.2847 81.8629 35.3424C81.7652 35.4001 81.6361 35.3725 81.5747 35.2807C81.0053 34.4297 80.0013 33.0771 78.8448 31.7922C77.6835 30.502 76.3878 29.3021 75.2362 28.7327C72.8904 27.573 70.24 27.1856 69.2181 27.1376C69.1028 27.1321 69.014 27.04 69.0198 26.9317Z" fill="#D4B783"/>
<path fill-rule="evenodd" clip-rule="evenodd" d="M70.0113 25.3418C70.9941 24.9693 73.5784 24.6226 76.2377 26.1148C77.5774 26.8666 78.8059 28.2392 79.7929 29.6308C80.7823 31.0259 81.5431 32.4604 81.9426 33.3593C81.9879 33.4614 81.9443 33.5819 81.8451 33.6285C81.7459 33.6752 81.6287 33.6303 81.5834 33.5282C81.1941 32.6522 80.4464 31.2416 79.4738 29.8703C78.4988 28.4954 77.3117 27.1803 76.0486 26.4715C73.5021 25.0426 71.0384 25.3855 70.1479 25.723C70.0455 25.7618 69.932 25.7079 69.8943 25.6027C69.8566 25.4974 69.909 25.3806 70.0113 25.3418Z" fill="#D4B783"/>
<path fill-rule="evenodd" clip-rule="evenodd" d="M74.4155 23.6496C75.3611 23.9745 76.5251 24.5447 77.8705 25.451C80.054 26.9217 81.4958 29.6717 81.9458 30.7829C81.9872 30.8851 81.9387 31.0019 81.8375 31.0437C81.7364 31.0855 81.6208 31.0366 81.5794 30.9344C81.1401 29.8492 79.7362 27.1883 77.651 25.7837C76.3285 24.8929 75.1952 24.3399 74.2881 24.0283C73.3761 23.7149 72.708 23.6507 72.3093 23.7179C71.6197 23.834 71.1731 24.0553 71.0526 24.1364C70.9617 24.1977 70.8388 24.1729 70.7782 24.0811C70.7175 23.9892 70.742 23.8651 70.833 23.8038C71.0089 23.6852 71.5109 23.4469 72.2442 23.3234C72.7348 23.2408 73.4748 23.3264 74.4155 23.6496Z" fill="#D4B783"/>
<path fill-rule="evenodd" clip-rule="evenodd" d="M74.3445 22.8204C73.3481 22.8228 72.423 23.0296 71.8818 23.2173C71.7758 23.2541 71.6586 23.2019 71.62 23.1007C71.5815 22.9996 71.6362 22.8878 71.7422 22.851C72.323 22.6496 73.2949 22.4332 74.3435 22.4307C75.3907 22.4282 76.5393 22.6393 77.4458 23.3187C79.1712 24.6118 81.1376 26.4978 81.9054 27.279C81.9825 27.3575 81.9783 27.4808 81.896 27.5544C81.8137 27.628 81.6845 27.6241 81.6073 27.5455C80.8452 26.7701 78.8951 24.9005 77.1934 23.6252C76.3865 23.0204 75.3422 22.818 74.3445 22.8204Z" fill="#D4B783"/>
<path fill-rule="evenodd" clip-rule="evenodd" d="M54.8074 19.0401C56.5942 18.8527 58.4574 19.095 60.0202 19.9353C60.6235 20.2597 61.6106 20.8649 62.5161 21.5101C62.969 21.8328 63.4047 22.1677 63.7631 22.4843C64.1128 22.7934 64.4059 23.0996 64.5622 23.3705C64.8396 23.7725 65.0603 24.2361 65.2916 24.7217C65.378 24.9033 65.466 25.088 65.5589 25.2736C65.9071 25.9696 66.343 26.7227 67.069 27.5037C67.2338 27.681 67.3275 27.9104 67.2828 28.1575C67.2392 28.3979 67.0742 28.5991 66.837 28.7516C66.3657 29.0546 65.515 29.2307 64.237 29.1498C63.2453 29.087 62.4265 29.3908 61.6652 29.8357C61.283 30.059 60.9171 30.3167 60.5497 30.5819C60.4935 30.6225 60.4373 30.6633 60.3809 30.7041C60.0709 30.9288 59.7577 31.1557 59.4381 31.362L59.4346 31.3643C58.6922 31.8435 57.7553 32.4483 56.8537 32.9131C56.4019 33.146 55.9542 33.3463 55.5402 33.4784C55.1293 33.6095 54.7357 33.6786 54.3984 33.6332C53.1894 33.4706 50.7931 32.8251 48.2631 32.0245C47.2672 31.7094 46.5608 31.6482 46.0883 31.692C45.604 31.7369 45.3964 31.8879 45.3481 31.9529C45.3009 32.0164 45.2243 32.0456 45.1505 32.0283C45.0766 32.0109 45.0183 31.9501 45 31.8712C44.8931 31.411 44.7553 30.0478 44.9958 28.1072C45.1506 26.8581 45.7654 25.4631 46.6516 24.1648C47.5396 22.8639 48.7107 21.6442 49.9977 20.7482C51.2934 19.8462 53.0206 19.2275 54.8074 19.0401ZM54.8459 19.4658C53.1133 19.6476 51.4488 20.2475 50.2137 21.1073C48.9698 21.9732 47.8334 23.1561 46.9721 24.418C46.109 25.6824 45.5328 27.0103 45.3899 28.1637C45.1981 29.7114 45.2549 30.8643 45.332 31.453C45.5114 31.3618 45.753 31.2938 46.0541 31.2659C46.589 31.2163 47.3465 31.2886 48.3753 31.6142C50.9069 32.4152 53.2746 33.051 54.4477 33.2088C54.7058 33.2435 55.038 33.1925 55.4272 33.0683C55.8135 32.9451 56.2404 32.755 56.6819 32.5274C57.5653 32.072 58.4877 31.4767 59.2336 30.9953C59.5434 30.7953 59.8467 30.5755 60.1569 30.3508C60.2137 30.3096 60.2708 30.2682 60.3282 30.2268C60.6965 29.9609 61.0756 29.6934 61.4754 29.4598C62.2782 28.9908 63.1715 28.6539 64.2604 28.7228C65.5133 28.8021 66.2656 28.6207 66.6331 28.3845C66.8152 28.2674 66.8784 28.1536 66.8926 28.0757C66.9055 28.0044 66.8862 27.912 66.7879 27.8062C66.0251 26.9855 65.5677 26.1936 65.2088 25.4764C65.1057 25.2703 65.0121 25.0737 64.9227 24.886C64.6962 24.4105 64.4967 23.9915 64.2382 23.6184C64.2345 23.6132 64.2311 23.6077 64.2279 23.6021C64.1101 23.3946 63.8597 23.1233 63.5107 22.8149C63.1666 22.5108 62.7431 22.1848 62.2966 21.8667C61.4033 21.2302 60.4301 20.6339 59.8425 20.3179C58.3627 19.5222 56.5786 19.2841 54.8459 19.4658Z" fill="#D4B783"/>
<path fill-rule="evenodd" clip-rule="evenodd" d="M65.7697 0.0661871C65.8128 0.113026 65.8307 0.17698 65.8181 0.238727C65.7781 0.434071 65.7854 1.09288 66.254 1.89428C66.3208 2.00861 66.4559 2.1833 66.6546 2.42123C66.7985 2.59349 66.9697 2.792 67.1629 3.01604C67.2333 3.09762 67.3066 3.18259 67.3825 3.27091C67.9497 3.93049 68.6565 4.76676 69.3591 5.72618C70.7606 7.63995 72.1636 10.0674 72.3981 12.5881C72.7687 16.572 71.6283 21.5734 71.0138 23.5753C71.0075 23.5959 70.9978 23.6153 70.9852 23.6328C70.499 24.308 69.7384 25.3142 69.0364 26.1382C68.6861 26.5494 68.3461 26.9203 68.0598 27.1824C67.9173 27.3128 67.7817 27.4223 67.6602 27.4963C67.5994 27.5333 67.536 27.5652 67.4722 27.5852C67.4099 27.6048 67.3318 27.6178 67.2507 27.598C67.1263 27.5676 67.0056 27.4858 66.8976 27.3942C66.7849 27.2987 66.6648 27.1738 66.5417 27.0306C66.295 26.7438 66.0222 26.3671 65.7526 25.9624C65.2128 25.1524 64.6737 24.2116 64.3645 23.6072C64.229 23.3424 63.975 23.0637 63.6415 22.7722C63.3102 22.4827 62.916 22.1935 62.514 21.9035C62.4699 21.8717 62.4257 21.8398 62.3814 21.808C62.0257 21.5519 61.669 21.295 61.3618 21.0434C61.0191 20.7628 60.718 20.473 60.5461 20.179C60.2309 19.6401 59.6137 18.2048 58.9841 16.6014C58.3523 14.9924 57.7001 13.193 57.3155 11.9151C56.5354 9.32309 56.8423 5.50401 59.5083 2.89852C61.6307 0.824367 64.4435 0.103506 65.5993 0.000820887C65.6635 -0.00488015 65.7267 0.0193487 65.7697 0.0661871ZM65.3946 0.426299C64.1855 0.594596 61.6975 1.32359 59.7971 3.18077C57.2629 5.65749 56.9579 9.31224 57.7073 11.8025C58.0875 13.0656 58.7353 14.8537 59.3654 16.4584C59.9977 18.0688 60.604 19.4736 60.9007 19.981C61.0347 20.2101 61.288 20.4622 61.6241 20.7375C61.9208 20.9805 62.2665 21.2294 62.624 21.4868C62.668 21.5185 62.7122 21.5504 62.7566 21.5823C63.1575 21.8716 63.5663 22.171 63.9138 22.4747C64.259 22.7764 64.5594 23.0956 64.7298 23.4287C65.0324 24.0202 65.5639 24.9478 66.0949 25.7446C66.3605 26.1434 66.6231 26.5048 66.8544 26.7738C66.9702 26.9085 67.0748 27.0161 67.1653 27.0927C67.2498 27.1644 67.3073 27.1964 67.3391 27.2075C67.3413 27.207 67.344 27.2062 67.3474 27.2052C67.368 27.1987 67.4 27.1844 67.4443 27.1574C67.5328 27.1036 67.646 27.0143 67.7806 26.8911C68.0484 26.6459 68.3757 26.2899 68.7225 25.8828C69.4059 25.0806 70.1489 24.0993 70.632 23.4296C71.2432 21.4254 72.353 16.5125 71.9913 12.6242C71.7669 10.2122 70.4168 7.85637 69.027 5.95849C68.3339 5.01208 67.6354 4.18541 67.0699 3.52773C66.9952 3.4409 66.9227 3.35684 66.8527 3.27574C66.6586 3.05071 66.4842 2.84854 66.3382 2.67361C66.1419 2.43859 65.9855 2.23959 65.8994 2.09233C65.5026 1.4138 65.3941 0.805696 65.3946 0.426299Z" fill="#D4B783"/>
<path fill-rule="evenodd" clip-rule="evenodd" d="M48.5521 9.78812C50.2064 9.50681 52.0803 9.35106 53.5019 9.65905C55.73 10.1418 57.2273 10.8678 57.7127 11.1833C57.8068 11.2444 57.8322 11.3684 57.7695 11.4602C57.7068 11.5519 57.5796 11.5767 57.4855 11.5156C57.0505 11.2329 55.6027 10.5233 53.413 10.0489C52.0736 9.7587 50.266 9.90204 48.6224 10.1815C46.9836 10.4602 45.539 10.8685 44.9394 11.0877C44.7372 11.1617 44.576 11.3952 44.4856 11.8221C44.3979 12.2369 44.3916 12.7714 44.4389 13.3333C44.4859 13.8927 44.5848 14.4673 44.7004 14.9569C44.8169 15.4509 44.9469 15.8432 45.0507 16.0456C45.2688 16.4709 45.9447 17.3898 46.8257 18.3981C47.7034 19.4026 48.7666 20.4751 49.7475 21.2107C49.8372 21.278 49.8539 21.4033 49.785 21.4907C49.716 21.5781 49.5874 21.5945 49.4978 21.5272C48.4846 20.7674 47.4002 19.6715 46.5139 18.6571C45.631 17.6466 44.9264 16.6962 44.6843 16.2242C44.558 15.978 44.4195 15.5478 44.3012 15.0464C44.1818 14.5406 44.0794 13.9468 44.0306 13.3659C43.982 12.7875 43.9853 12.2098 44.0845 11.7414C44.1811 11.285 44.3842 10.8642 44.7956 10.7138C45.4231 10.4844 46.893 10.0702 48.5521 9.78812Z" fill="#D4B783"/>
<path fill-rule="evenodd" clip-rule="evenodd" d="M63.8066 0.099249C63.8775 0.197757 63.8423 0.327179 63.7281 0.388322C61.1555 1.76536 59.9094 3.83005 59.4176 6.02774C58.9247 8.23047 59.1925 10.5584 59.6448 12.4307C60.3676 15.4224 62.7259 20.1401 63.8197 22.1315C63.8773 22.2363 63.8254 22.3615 63.7039 22.4111C63.5824 22.4607 63.4373 22.416 63.3797 22.3113C62.2858 20.3197 59.9039 15.5619 59.1682 12.5163C58.7089 10.6152 58.4298 8.22635 58.9396 5.94818C59.4505 3.66497 60.7568 1.48459 63.4714 0.0315936C63.5856 -0.0295492 63.7357 0.000741187 63.8066 0.099249Z" fill="#D4B783"/>
<path fill-rule="evenodd" clip-rule="evenodd" d="M69.9314 20.9241C69.9445 21.1033 69.9588 21.2936 69.9777 21.4962C70.0977 22.7814 70.5299 24.1827 70.7302 24.7191C70.7722 24.8315 70.7212 24.959 70.6163 25.004C70.5113 25.0489 70.3923 24.9942 70.3503 24.8819C70.142 24.3241 69.6957 22.8806 69.5705 21.5398C69.5511 21.3321 69.5366 21.1377 69.5234 20.9585L69.5209 20.9248C69.5087 20.758 69.4975 20.6057 69.4843 20.4655C69.4557 20.1619 69.4194 19.9393 69.3557 19.7771C69.2963 19.6261 69.2168 19.536 69.0934 19.4821C68.958 19.423 68.7492 19.3986 68.4175 19.438C67.371 19.5626 67.0913 20.0976 67.0632 20.2479C67.0466 20.3366 66.9808 20.4054 66.8975 20.4208C66.8142 20.4363 66.7306 20.3953 66.6871 20.3176C66.623 20.2032 66.4869 20.0196 66.2985 19.8667C66.1107 19.7143 65.8849 19.6034 65.6367 19.6034C65.2769 19.6034 64.8034 19.6812 64.3677 19.8562C63.9286 20.0325 63.5564 20.2959 63.3603 20.6459C63.3022 20.7497 63.1765 20.7833 63.0796 20.7211C62.9827 20.6588 62.9513 20.5242 63.0094 20.4204C63.2731 19.9498 63.7436 19.6387 64.224 19.4458C64.7077 19.2515 65.2302 19.1651 65.6367 19.1651C66.0013 19.1651 66.3119 19.3277 66.5456 19.5173C66.6524 19.604 66.746 19.6986 66.8248 19.791C67.0561 19.4537 67.5368 19.1019 68.3723 19.0024C68.7302 18.9598 69.0194 18.9765 69.248 19.0763C69.4885 19.1814 69.6389 19.3683 69.7328 19.6071C69.8223 19.8347 69.8626 20.1148 69.8915 20.4215C69.9051 20.5668 69.9167 20.7237 69.9288 20.889L69.9314 20.9241Z" fill="#D4B783"/>
<path fill-rule="evenodd" clip-rule="evenodd" d="M69.9849 6.0494C70.0636 6.01439 70.1487 6.07116 70.175 6.17619C70.5144 7.53444 71.2604 11.091 71.5322 13.8708C71.6696 15.2761 71.6023 17.2597 71.4652 19.1559C71.3278 21.0564 71.119 22.8862 70.9682 23.9921C70.9534 24.101 70.8751 24.1732 70.7935 24.1534C70.7118 24.1336 70.6576 24.0293 70.6725 23.9203C70.8219 22.8242 71.0295 21.0055 71.166 19.1174C71.3028 17.2251 71.3668 15.28 71.2341 13.9227C70.9657 11.1773 70.2258 7.64727 69.8898 6.30298C69.8636 6.19795 69.9061 6.08442 69.9849 6.0494Z" fill="#D4B783"/>
<path fill-rule="evenodd" clip-rule="evenodd" d="M65.901 0.0648851C65.9806 0.1476 65.9763 0.277516 65.8914 0.355061C64.6758 1.46602 63.9402 3.14644 63.6092 5.13894C63.2787 7.12943 63.3555 9.41247 63.7471 11.7029C64.3742 15.3711 65.787 19.0441 66.413 20.4172C66.4602 20.5208 66.4124 20.6421 66.3061 20.6881C66.1998 20.7342 66.0754 20.6875 66.0281 20.5839C65.3924 19.1894 63.9662 15.4823 63.3316 11.7704C62.9346 9.44834 62.8538 7.11883 63.1935 5.07332C63.5329 3.02984 64.2955 1.25084 65.6034 0.0555246C65.6882 -0.0220205 65.8215 -0.0178297 65.901 0.0648851Z" fill="#D4B783"/>
<path fill-rule="evenodd" clip-rule="evenodd" d="M64.6851 0.10965C64.7321 0.209114 64.6965 0.331451 64.6056 0.382898C62.6806 1.4715 61.8912 3.95754 61.6842 6.52263C61.478 9.07823 61.8576 11.6318 62.1963 12.7427C62.7539 14.5717 63.6349 18.0701 64.0051 19.5881C64.0315 19.6963 63.9727 19.8074 63.8737 19.8362C63.7747 19.8651 63.6731 19.8008 63.6467 19.6926C63.2762 18.1734 62.3979 14.6865 61.8444 12.8709C61.4887 11.7041 61.1043 9.09449 61.3148 6.48699C61.5244 3.889 62.3323 1.21194 64.4352 0.0227072C64.5261 -0.0287397 64.638 0.0101859 64.6851 0.10965Z" fill="#D4B783"/>
<path fill-rule="evenodd" clip-rule="evenodd" d="M67.5613 2.58953C67.6776 2.60386 67.7601 2.70841 67.7456 2.82305C67.6702 3.41714 67.7447 4.68395 68.042 6.34453C68.3379 7.99787 68.8513 10.0223 69.6411 12.1245C70.334 13.9689 70.64 16.3182 70.7216 18.5047C70.8032 20.6929 70.6608 22.7381 70.4459 23.9824C70.4263 24.0963 70.3167 24.1729 70.2011 24.1535C70.0856 24.1341 70.0079 24.0261 70.0275 23.9122C70.2365 22.702 70.3783 20.6863 70.2975 18.5201C70.2166 16.3523 69.9134 14.0538 69.2431 12.2698C68.4437 10.142 67.924 8.0931 67.624 6.41724C67.3253 4.74862 67.2409 3.4304 67.3245 2.77115C67.339 2.65651 67.445 2.5752 67.5613 2.58953Z" fill="#D4B783"/>
<path fill-rule="evenodd" clip-rule="evenodd" d="M66.1989 0.884708C66.2809 0.937014 66.3142 1.06422 66.2731 1.16883C66.1618 1.45266 66.0634 1.95834 65.9958 2.63248C65.9289 3.30012 65.8942 4.11295 65.9019 4.99724C65.9173 6.76766 66.1027 8.80737 66.5317 10.5262C67.2321 13.3325 67.9054 17.7434 68.1544 19.5951C68.1699 19.7104 68.1092 19.8199 68.0188 19.8396C67.9283 19.8594 67.8425 19.782 67.827 19.6667C67.5783 17.8176 66.9081 13.4312 66.2151 10.6546C65.7732 8.88415 65.5854 6.80014 65.5697 5.00195C65.5618 4.10193 65.5971 3.26924 65.6663 2.57882C65.7348 1.89491 65.8385 1.33 65.976 0.979416C66.017 0.874805 66.1168 0.832403 66.1989 0.884708Z" fill="#D4B783"/>
<path fill-rule="evenodd" clip-rule="evenodd" d="M60.4977 25.8728C59.3321 25.5647 57.7495 25.3097 55.634 25.4554C53.9735 25.5697 51.8938 26.5054 49.9488 27.6533C48.0115 28.7967 46.2391 30.1314 45.2015 31.0098C45.1167 31.0815 44.9877 31.0735 44.9133 30.9918C44.8389 30.9101 44.8473 30.7857 44.932 30.7139C45.9845 29.823 47.7756 28.4743 49.7356 27.3175C51.688 26.1653 53.8396 25.1842 55.6049 25.0626C57.7716 24.9134 59.4007 25.1745 60.6056 25.4931C61.2071 25.652 61.7014 25.825 62.0989 25.9658L62.135 25.9786C62.5223 26.1158 62.7946 26.2123 62.994 26.2444C63.2427 26.2843 63.5635 26.3819 63.9099 26.4994C64.1297 26.5739 64.3676 26.6592 64.6107 26.7464C64.7522 26.7971 64.8954 26.8485 65.0379 26.8987C65.4288 27.0366 65.8194 27.1681 66.1772 27.265C66.5378 27.3627 66.8507 27.4213 67.0897 27.4213C67.2025 27.4213 67.2939 27.5094 67.2939 27.6181C67.2939 27.7268 67.2025 27.815 67.0897 27.815C66.7935 27.815 66.4372 27.7445 66.0667 27.6441C65.6932 27.5429 65.2904 27.4071 64.8976 27.2685C64.7501 27.2165 64.6048 27.1644 64.4626 27.1134C64.2225 27.0273 63.9914 26.9443 63.7744 26.8708C63.4279 26.7533 63.1369 26.6665 62.9268 26.6328C62.6883 26.5944 62.3827 26.486 62.0248 26.3591C62.0028 26.3512 61.9805 26.3433 61.958 26.3354C61.5622 26.1951 61.0815 26.0271 60.4977 25.8728Z" fill="#D4B783"/>
<path fill-rule="evenodd" clip-rule="evenodd" d="M60.0107 21.1772C58.9425 21.0757 57.4014 21.0295 55.3435 21.1398C53.3165 21.2485 51.3235 21.9064 49.6705 22.6908C48.0167 23.4756 46.7198 24.379 46.0852 24.963C46.0051 25.0367 45.8728 25.039 45.7895 24.9681C45.7063 24.8973 45.7037 24.7802 45.7837 24.7065C46.4541 24.0897 47.7882 23.1642 49.4728 22.3647C51.1581 21.565 53.2109 20.8835 55.3182 20.7705C57.3948 20.6591 58.9597 20.7052 60.0553 20.8093C60.6029 20.8613 61.0356 20.9281 61.3575 20.9976C61.6696 21.065 61.903 21.1401 62.0299 21.2203C62.1239 21.2797 62.1457 21.3953 62.0785 21.4784C62.0114 21.5615 61.8808 21.5808 61.7868 21.5214C61.731 21.4861 61.5677 21.4239 61.2583 21.357C60.9587 21.2923 60.545 21.228 60.0107 21.1772Z" fill="#D4B783"/>
<path fill-rule="evenodd" clip-rule="evenodd" d="M100.919 18.8144C99.1411 18.5451 96.6947 18.3642 93.7131 18.6866C90.0685 19.0808 87.4893 20.0159 85.5807 21.0211C84.1323 21.7839 83.0735 22.5838 82.2123 23.2343C82.1352 23.2926 82.0597 23.3496 81.9857 23.4053C82.498 23.4038 83.0733 23.4641 83.6913 23.5556C84.3106 23.6474 84.987 23.773 85.6986 23.9052C86.0502 23.9706 86.4105 24.0375 86.7766 24.1027C89.0045 24.4995 91.4902 24.8401 93.8632 24.4496C95.7555 24.1382 97.845 23.1935 99.6976 22.1276C101.348 21.1781 102.796 20.1408 103.729 19.3928C103.669 19.3783 103.605 19.3626 103.536 19.3457C103.4 19.3124 103.246 19.2746 103.071 19.2334C102.531 19.1059 101.808 18.949 100.919 18.8144ZM103.849 19.012C104.031 19.0558 104.144 19.0804 104.205 19.0868C104.288 19.0955 104.357 19.1494 104.382 19.2242C104.407 19.2991 104.383 19.3809 104.321 19.4329C103.403 20.2014 101.788 21.3899 99.9157 22.467C98.0468 23.5422 95.9042 24.5169 93.9351 24.8409C91.4814 25.2446 88.9306 24.8904 86.699 24.493C86.3246 24.4263 85.9603 24.3586 85.6069 24.2929C84.9005 24.1617 84.2378 24.0386 83.6264 23.948C82.7076 23.8119 81.9362 23.7547 81.3423 23.8484C81.2468 23.8634 81.1529 23.8148 81.1148 23.7306C81.0768 23.6465 81.1045 23.5486 81.1819 23.4937C81.4121 23.3303 81.6608 23.1424 81.9326 22.937C82.7964 22.2843 83.8942 21.4548 85.3766 20.6741C87.3329 19.6438 89.9652 18.6922 93.6655 18.2921C96.691 17.9648 99.1763 18.1482 100.985 18.4222C101.89 18.5592 102.625 18.7188 103.173 18.848C103.349 18.8896 103.507 18.9285 103.645 18.9622C103.719 18.9804 103.787 18.9972 103.849 19.012Z" fill="#D4B783"/>
<path fill-rule="evenodd" clip-rule="evenodd" d="M103.529 19.2077C103.533 19.3375 103.444 19.446 103.33 19.45C102.801 19.4683 102.083 19.4654 101.252 19.4619C101.189 19.4616 101.125 19.4614 101.06 19.4611C100.146 19.4574 99.1015 19.455 98.0128 19.4794C95.8321 19.5284 93.4873 19.6852 91.6598 20.1504C87.961 21.0919 83.894 23.1162 82.264 24.1275C82.1642 24.1894 82.0396 24.147 81.9855 24.0327C81.9315 23.9184 81.9686 23.7756 82.0683 23.7137C83.7249 22.6859 87.8277 20.6437 91.5707 19.691C93.4407 19.215 95.8204 19.058 98.0048 19.009C99.0986 18.9844 100.147 18.9868 101.062 18.9905C101.125 18.9908 101.188 18.991 101.25 18.9913C102.085 18.9948 102.796 18.9977 103.318 18.9796C103.431 18.9757 103.526 19.0778 103.529 19.2077Z" fill="#D4B783"/>
<path fill-rule="evenodd" clip-rule="evenodd" d="M103.469 19.0427C103.549 19.1269 103.549 19.2635 103.469 19.3477C103.237 19.5898 102.732 19.9137 102.098 20.2653C101.454 20.6224 100.65 21.0224 99.7955 21.4147C98.0901 22.1981 96.1692 22.9588 94.9143 23.2868C93.9034 23.551 91.9938 23.7495 90.0354 23.8912C88.0703 24.0335 86.0352 24.1199 84.7607 24.1559C84.6468 24.1591 84.552 24.0652 84.5489 23.9461C84.5458 23.827 84.6357 23.7279 84.7496 23.7247C86.0195 23.6888 88.0487 23.6026 90.0069 23.4609C91.9718 23.3187 93.8446 23.1217 94.8142 22.8683C96.0351 22.5492 97.9308 21.8001 99.6295 21.0198C100.477 20.6303 101.272 20.2349 101.905 19.8842C102.547 19.5282 102.996 19.2319 103.177 19.0427C103.258 18.9584 103.388 18.9584 103.469 19.0427Z" fill="#D4B783"/>
<path fill-rule="evenodd" clip-rule="evenodd" d="M102.664 20.0177C102.681 20.1299 102.605 20.2345 102.496 20.2514C99.296 20.7433 88.2123 23.056 83.0647 24.1522C82.9564 24.1752 82.8502 24.1039 82.8277 23.9928C82.8052 23.8818 82.8748 23.773 82.9832 23.7499C88.1246 22.6551 99.2224 20.3391 102.436 19.8451C102.546 19.8282 102.648 19.9056 102.664 20.0177Z" fill="#D4B783"/>
<path fill-rule="evenodd" clip-rule="evenodd" d="M27.6297 16.2265C29.4078 15.9572 31.8542 15.7763 34.8357 16.0987C38.4804 16.4929 41.0595 17.428 42.9681 18.4332C44.4165 19.196 45.4753 19.9959 46.3366 20.6465C46.4136 20.7047 46.4891 20.7617 46.5632 20.8174C46.0509 20.8159 45.4755 20.8762 44.8575 20.9678C44.2382 21.0595 43.5618 21.1852 42.8502 21.3174C42.4986 21.3827 42.1384 21.4496 41.7722 21.5148C39.5443 21.9116 37.0586 22.2522 34.6856 21.8617C32.7933 21.5504 30.7038 20.6056 28.8512 19.5397C27.2008 18.5902 25.7527 17.5529 24.8201 16.8049C24.8801 16.7905 24.9443 16.7747 25.0133 16.7578C25.149 16.7245 25.3029 16.6867 25.4778 16.6455C26.018 16.518 26.7406 16.3611 27.6297 16.2265ZM24.7001 16.4241C24.5183 16.4679 24.4047 16.4925 24.3435 16.4989C24.261 16.5076 24.1917 16.5615 24.1666 16.6363C24.1416 16.7112 24.1655 16.793 24.2276 16.845C25.1458 17.6135 26.7612 18.802 28.6332 19.8791C30.502 20.9543 32.6446 21.929 34.6137 22.253C37.0674 22.6568 39.6183 22.3025 41.8498 21.9051C42.2242 21.8384 42.5885 21.7707 42.942 21.705C43.6483 21.5738 44.311 21.4507 44.9225 21.3601C45.8412 21.224 46.6126 21.1668 47.2066 21.2605C47.302 21.2755 47.3959 21.2269 47.434 21.1427C47.4721 21.0586 47.4444 20.9607 47.367 20.9058C47.1368 20.7424 46.8881 20.5545 46.6162 20.3491C45.7524 19.6964 44.6546 18.8669 43.1722 18.0862C41.2159 17.0559 38.5837 16.1044 34.8833 15.7042C31.8578 15.377 29.3725 15.5604 27.5634 15.8344C26.6588 15.9713 25.9239 16.1309 25.3762 16.2602C25.2001 16.3017 25.0415 16.3406 24.9043 16.3743C24.8297 16.3926 24.7614 16.4093 24.7001 16.4241Z" fill="#D4B783"/>
<path fill-rule="evenodd" clip-rule="evenodd" d="M25.0196 16.5827C25.0162 16.691 25.1053 16.7814 25.2187 16.7846C25.7478 16.7999 26.4656 16.7975 27.2971 16.7946C27.3602 16.7944 27.424 16.7941 27.4884 16.7939C28.4031 16.7909 29.4473 16.7888 30.536 16.8092C32.7167 16.85 35.0616 16.9807 36.889 17.3683C40.5878 18.1529 44.6548 19.8398 46.2848 20.6826C46.3846 20.7342 46.5093 20.6988 46.5633 20.6036C46.6173 20.5084 46.5803 20.3894 46.4805 20.3378C44.8239 19.4812 40.7211 17.7794 36.9781 16.9855C35.1081 16.5888 32.7285 16.458 30.5441 16.4171C29.4502 16.3967 28.4018 16.3987 27.487 16.4018C27.4236 16.402 27.361 16.4022 27.299 16.4024C26.4637 16.4053 25.7529 16.4078 25.2311 16.3927C25.1177 16.3894 25.023 16.4745 25.0196 16.5827Z" fill="#D4B783"/>
<path fill-rule="evenodd" clip-rule="evenodd" d="M25.08 16.4558C24.9995 16.54 24.9995 16.6765 25.08 16.7608C25.3116 17.0029 25.8166 17.3267 26.4509 17.6784C27.0949 18.0355 27.8992 18.4354 28.7533 18.8278C30.4587 19.6112 32.3797 20.3719 33.6345 20.6999C34.6455 20.9641 36.555 21.1626 38.5134 21.3043C40.4785 21.4466 42.5136 21.533 43.7881 21.569C43.902 21.5722 43.9968 21.4783 43.9999 21.3592C44.003 21.2401 43.9132 21.141 43.7993 21.1378C42.5293 21.1019 40.5001 21.0157 38.5419 20.874C36.577 20.7317 34.7042 20.5348 33.7346 20.2814C32.5138 19.9623 30.618 19.2132 28.9193 18.4329C28.0714 18.0433 27.2768 17.648 26.6442 17.2973C26.002 16.9413 25.5528 16.645 25.3718 16.4558C25.2912 16.3715 25.1606 16.3715 25.08 16.4558Z" fill="#D4B783"/>
<path fill-rule="evenodd" clip-rule="evenodd" d="M25.8844 16.5675C25.868 16.6797 25.9435 16.7843 26.0529 16.8012C29.2529 17.2931 40.3365 19.6058 45.4841 20.702C45.5925 20.725 45.6986 20.6537 45.7211 20.5426C45.7436 20.4316 45.674 20.3228 45.5656 20.2997C40.4243 19.2049 29.3264 16.889 26.1124 16.3949C26.0029 16.3781 25.9009 16.4554 25.8844 16.5675Z" fill="#D4B783"/>
</svg>
